<?xml version="1.0" standalone="no"?>
<!DOCTYPE svg PUBLIC "-//W3C//DTD SVG 20010904//EN"
 "http://www.w3.org/TR/2001/REC-SVG-20010904/DTD/svg10.dtd">
<svg version="1.0" xmlns="http://www.w3.org/2000/svg"
 width="93.000000pt" height="93.000000pt" viewBox="0 0 93.000000 93.000000"
 preserveAspectRatio="xMidYMid meet">
<metadata>
Created by potrace 1.14, written by Peter Selinger 2001-2017
</metadata>
<g transform="translate(0.000000,93.000000) scale(0.100000,-0.100000)"
fill="#000000" stroke="none">
<path d="M414 783 c-38 -19 -64 -60 -64 -104 0 -44 -34 -113 -64 -129 -55 -29
-56 -104 -3 -144 24 -18 42 -19 190 -19 181 1 206 8 225 63 13 35 -11 90 -45
105 -13 5 -23 17 -23 27 0 22 -21 68 -31 68 -4 0 -10 19 -14 42 -9 49 -51 98
-87 99 -13 0 -30 2 -38 3 -8 2 -29 -3 -46 -11z m100 -59 c23 -23 20 -34 -14
-40 -16 -4 -43 -19 -60 -35 -16 -16 -32 -29 -35 -29 -13 0 -3 85 12 102 20 22
76 24 97 2z"/>
<path d="M744 339 c-3 -6 0 -15 7 -20 14 -8 32 9 23 23 -7 11 -22 10 -30 -3z"/>
<path d="M249 338 c-5 -18 -2 -198 4 -198 4 0 10 0 15 0 4 0 8 12 8 27 3 41 3
41 19 6 8 -18 21 -33 29 -33 12 0 11 7 -5 40 -18 37 -18 42 -4 70 19 36 19 40
0 40 -8 0 -15 -6 -15 -14 0 -7 -6 -18 -13 -24 -11 -9 -13 -2 -13 35 1 29 -4
48 -11 50 -7 3 -13 3 -14 1z"/>
<path d="M689 328 c-1 -7 0 -19 1 -27 1 -9 -4 -12 -14 -8 -27 11 -46 -21 -46
-78 0 -56 20 -92 43 -78 7 4 19 6 28 5 13 -2 15 12 15 98 0 75 -3 100 -13 100
-7 0 -14 -6 -14 -12z m-4 -113 c0 -30 -5 -50 -12 -52 -10 -4 -13 11 -13 52 0
41 3 56 13 53 7 -3 12 -23 12 -53z"/>
<path d="M453 310 c-3 -11 -9 -20 -15 -20 -5 0 -5 -8 1 -18 5 -10 10 -32 9
-48 -2 -76 1 -84 27 -84 25 0 35 15 13 22 -18 6 -17 97 1 108 13 7 12 10 -2
25 -10 9 -15 21 -12 26 4 5 1 9 -5 9 -7 0 -14 -9 -17 -20z"/>
<path d="M159 288 c-4 -59 1 -142 9 -150 13 -13 21 13 20 67 0 69 1 72 16 53
18 -24 28 -22 24 5 -2 14 -10 22 -23 22 -11 1 -26 4 -33 8 -7 5 -12 3 -13 -5z"/>
<path d="M355 278 c-12 -18 -12 -25 0 -48 7 -14 21 -32 29 -39 9 -7 13 -17 10
-22 -8 -14 -24 -10 -24 6 0 19 -16 20 -23 2 -11 -28 25 -51 56 -35 24 12 21
44 -9 83 -14 19 -21 36 -15 39 5 4 14 -2 20 -11 12 -23 25 -11 17 15 -10 29
-43 34 -61 10z"/>
<path d="M520 226 c0 -75 12 -103 39 -87 7 5 21 7 30 4 15 -4 17 5 16 69 0 57
-3 73 -15 76 -13 2 -16 -9 -15 -59 0 -41 -4 -64 -12 -66 -10 -4 -13 13 -13 60
0 48 -4 66 -15 71 -12 4 -15 -7 -15 -68z"/>
<path d="M817 285 c-21 -15 -26 -101 -7 -131 20 -32 59 -20 67 20 4 17 7 39 6
49 0 9 -1 25 -2 35 -1 26 -42 43 -64 27z m35 -27 c9 -28 2 -92 -10 -96 -11 -3
-14 6 -14 43 0 45 3 65 11 65 5 0 11 -6 13 -12z"/>
<path d="M57 284 c-12 -13 -8 -46 6 -41 6 2 11 10 10 16 -2 6 4 11 12 11 24 0
17 -36 -10 -54 -17 -11 -25 -26 -25 -46 0 -28 2 -30 41 -30 l40 0 -3 73 -3 72
-30 3 c-17 2 -34 0 -38 -4z m39 -121 c-2 -3 -9 -2 -15 2 -8 4 -7 13 1 28 l13
22 3 -23 c2 -13 1 -26 -2 -29z"/>
<path d="M744 215 c0 -64 2 -75 15 -73 22 4 22 142 0 146 -11 2 -14 -13 -15
-73z"/>
</g>
</svg>
